<?xml version="1.0" encoding="UTF-8"?>
<svg width="240px" height="47px" viewBox="0 0 240 47" version="1.1" xmlns="http://www.w3.org/2000/svg" xmlns:xlink="http://www.w3.org/1999/xlink">
    <!-- Generator: Sketch 44.1 (41455) - http://www.bohemiancoding.com/sketch -->
    <title>pic_logo</title>
    <desc>Created with Sketch.</desc>
    <defs></defs>
    <g id="wap" stroke="none" stroke-width="1" fill="none" fill-rule="evenodd">
        <g id="wap_index" transform="translate(-60.000000, -580.000000)" fill="#383B3E">
            <g id="head">
                <g id="TEXT" transform="translate(60.000000, 448.000000)">
                    <g id="pic_logo" transform="translate(0.000000, 132.000000)">
                        <path d="M35.0890413,32.6925436 C34.8193719,32.4704891 34.4787934,32.3481982 34.1274711,32.3481982 C33.706314,32.3481982 33.2980496,32.5251982 33.0090413,32.8362891 C30.3961488,35.6382527 26.6970579,37.2451982 22.8604463,37.2451982 C22.356562,37.2451982 21.845157,37.21838 21.3412727,37.1636709 C14.2557355,36.4020345 8.83441322,30.2145436 8.99771901,23.0776891 C9.16854545,15.6211618 15.3870579,9.55488909 22.8604463,9.55488909 C26.5992893,9.55488909 30.2317686,11.0942527 32.8306942,13.7782164 C33.1175537,14.0732164 33.5172231,14.24378 33.9276364,14.24378 C34.2886281,14.24378 34.6367273,14.1150527 34.9106942,13.8801255 L39.4424298,10.0022164 C39.7593719,9.73081636 39.946314,9.35214364 39.9699504,8.93485273 C39.991438,8.52292545 39.8442479,8.11421636 39.561686,7.81385273 C35.2544959,3.21292545 29.1670579,0.574016364 22.8604463,0.574016364 C10.3911901,0.574016364 0.137305785,10.7005618 0.0019338843,23.1484891 C-0.128066116,35.0664891 9.07077686,45.1694345 20.9437521,46.1466891 C21.5808595,46.1992527 22.2244132,46.2249982 22.8604463,46.2249982 C29.3335868,46.2249982 35.5273884,43.4713073 39.8549917,38.6687073 C40.1332562,38.3586891 40.2697025,37.9585618 40.2396198,37.5423436 C40.2095372,37.1325618 40.0086281,36.74638 39.691686,36.4846345 L35.0890413,32.6925436 Z" id="Fill-1"></path>
                        <path d="M161.361264,13.4840745 C161.176471,6.07367455 154.919281,0.245547273 147.495314,0.245547273 L129.811017,0.245547273 C129.241595,0.245547273 128.779612,0.705747273 128.779612,1.27536545 L128.779612,26.48982 C128.779612,27.0583655 129.241595,27.5185655 129.811017,27.5185655 L136.47862,27.5185655 C137.046967,27.5185655 137.50895,27.0583655 137.50895,26.48982 L137.50895,9.99127455 C137.50895,9.42165636 137.970934,8.96145636 138.540355,8.96145636 L147.618868,8.96145636 C150.24143,8.96145636 152.500851,10.9685291 152.629777,13.5838382 C152.768372,16.3782927 150.530438,18.6964564 147.760686,18.6964564 L142.323248,18.6964564 C141.753826,18.6964564 141.291843,19.1577291 141.291843,19.7262745 L141.291843,26.3825473 C141.291843,26.9521655 141.753826,27.4123655 142.323248,27.4123655 L148.334405,27.4123655 C150.974157,27.4123655 153.32705,29.5631836 153.390438,32.1978018 C153.424818,33.6256018 152.853248,34.9697291 151.796058,35.9394745 C150.861347,36.7955109 149.609694,37.2256745 148.341926,37.2256745 L142.323248,37.2256745 C141.753826,37.2256745 141.291843,37.6869473 141.291843,38.2554927 L141.291843,44.9117655 C141.291843,45.4803109 141.753826,45.9415836 142.323248,45.9415836 L148.217298,45.9415836 C151.844405,45.9415836 155.384488,44.6156927 157.983413,42.0904927 C160.661843,39.4912745 162.133744,35.9963291 162.121926,32.2771836 C162.109033,28.5247836 160.568372,25.1231655 158.087628,22.6634018 C160.19986,20.2057836 161.448289,16.9886745 161.361264,13.4840745" id="Fill-3"></path>
                        <path d="M170.458901,8.96113455 L198.357331,8.96113455 C198.925678,8.96113455 199.387661,8.49986182 199.387661,7.93238909 L199.387661,1.27504364 C199.387661,0.706498182 198.925678,0.245225455 198.357331,0.245225455 L170.458901,0.245225455 C169.889479,0.245225455 169.427496,0.706498182 169.427496,1.27504364 L169.427496,7.93238909 C169.427496,8.49986182 169.889479,8.96113455 170.458901,8.96113455" id="Fill-5"></path>
                        <path d="M198.325636,37.02014 L179.254314,37.1553036 C178.681669,37.1595945 178.215388,36.6972491 178.215388,36.1265582 L178.215388,29.5099764 C178.215388,28.9414309 178.677372,28.4812309 179.246793,28.4812309 L195.461339,28.4812309 C196.03076,28.4812309 196.492744,28.0199582 196.492744,27.4514127 L196.492744,20.7940673 C196.492744,20.2255218 196.03076,19.7653218 195.461339,19.7653218 L179.246793,19.7653218 C178.677372,19.7653218 178.215388,19.3040491 178.215388,18.7355036 L178.215388,13.63254 C178.215388,13.0639945 177.754479,12.6037945 177.183983,12.6037945 L170.517455,12.6037945 C169.948033,12.6037945 169.48605,13.0639945 169.48605,13.63254 L169.48605,44.9046855 C169.48605,45.4764491 169.952331,45.9377218 170.524975,45.9345036 L198.38795,45.7360491 C198.957372,45.7317582 199.416132,45.2672673 199.411835,44.6987218 L199.364562,38.0424491 C199.360264,37.4739036 198.895058,37.0158491 198.325636,37.02014" id="Fill-7"></path>
                        <path d="M238.410223,0.188585455 L231.74262,0.188585455 C231.173198,0.188585455 230.711215,0.649858182 230.711215,1.21733091 L230.711215,28.5557855 L214.964025,1.22054909 C214.596587,0.582276364 213.914355,0.188585455 213.177331,0.188585455 L206.646174,0.188585455 C206.076752,0.188585455 205.615843,0.649858182 205.615843,1.21733091 L205.615843,26.4618218 C205.615843,27.0303673 206.076752,27.49164 206.646174,27.49164 L213.313777,27.49164 C213.883198,27.49164 214.344107,27.0303673 214.344107,26.4618218 L214.344107,17.6257673 L230.051545,45.3171491 C230.417909,45.9618582 231.102289,46.3609127 231.84576,46.3609127 L238.410223,46.3609127 C238.97857,46.3609127 239.440554,45.9007127 239.440554,45.3321673 L239.440554,1.21733091 C239.440554,0.649858182 238.97857,0.188585455 238.410223,0.188585455" id="Fill-9"></path>
                        <path d="M110.75624,18.8597255 C109.605579,19.9442527 108.266901,20.4709618 106.661777,20.4709618 L100.278884,20.4709618 C100.071529,20.4709618 99.9855785,20.4055255 99.9318595,20.3497436 C99.873843,20.2864527 99.7964876,20.1770345 99.7964876,19.9442527 L99.7964876,10.38518 C99.7964876,9.66430727 100.119876,9.60530727 100.478719,9.60530727 L106.661777,9.60530727 C108.266901,9.60530727 109.607727,10.1223618 110.759463,11.1865073 C111.906901,12.2474345 112.464504,13.5068164 112.464504,15.0375982 C112.464504,16.5276164 111.905826,17.7773436 110.75624,18.8597255 L110.75624,18.8597255 Z M116.139959,27.38898 C116.12062,27.3074527 116.087314,27.2194891 116.033595,27.1154345 C116.033595,27.1154345 116.021777,27.0886164 116.021777,27.0178164 C116.021777,26.8268709 116.088388,26.6884891 116.229132,26.5758527 C118.093182,25.1373255 119.591942,23.4134527 120.682438,21.4525073 C121.782603,19.4765436 122.339132,17.3182164 122.339132,15.0375982 C122.339132,12.3686527 121.63219,9.88099818 120.237645,7.64650727 C118.845248,5.41523455 116.924256,3.62914364 114.529463,2.33865273 C112.132521,1.04923455 109.485248,0.395943636 106.661777,0.395943636 L92.6969835,0.395943636 C92.203843,0.395943636 91.7794628,0.562216364 91.4356612,0.891543636 C91.0929339,1.21979818 90.9188843,1.60598 90.9188843,2.03721636 L90.9188843,44.4174527 C90.9188843,44.8443982 91.0983058,45.2402345 91.4356612,45.5620527 C91.777314,45.89138 92.2016942,46.0587255 92.6969835,46.0587255 L98.0183884,46.0587255 C98.5126033,46.0587255 98.9369835,45.89138 99.2797107,45.5631255 C99.6181405,45.2391618 99.7964876,44.8433255 99.7964876,44.4174527 L99.7964876,30.3969073 C99.7964876,30.1115618 99.8534298,29.9088164 99.950124,29.8401618 C100.003843,29.8026164 100.240207,29.6792527 101.010537,29.6792527 L106.310455,29.6792527 C107.046405,29.7307436 107.340785,29.8026164 107.449298,29.8412345 C107.528802,29.8691255 107.591116,29.91418 107.637314,30.04398 L107.644835,30.06758 L114.645496,45.0192527 C114.882934,45.4751618 115.191281,45.7712345 115.563017,45.9010345 C115.865992,46.0061618 116.283926,46.0587255 116.836157,46.0587255 L122.688306,46.0587255 C123.552107,46.0587255 124.068884,45.6113982 124.068884,44.8626345 C124.068884,44.5429618 123.987231,44.1996891 123.823926,43.8328164 L116.139959,27.38898 Z" id="Fill-11"></path>
                        <path d="M73.3711405,0.600298182 C73.0187438,0.376098182 72.6545289,0.262389091 72.2870909,0.262389091 L58.4555207,0.262389091 C58.0236198,0.262389091 57.6346942,0.39648 57.2984132,0.660370909 C56.9782479,0.910316364 56.7558512,1.21175273 56.6269256,1.58613455 L44.8495702,44.50488 C44.7765124,44.8556618 44.8549421,45.1914255 45.0762645,45.47248 C45.3072562,45.7685527 45.6349421,45.9240982 46.0206446,45.9240982 L52.5367603,45.9240982 C52.9074215,45.9240982 53.2856033,45.7985891 53.6616364,45.5497164 C54.0548595,45.2890436 54.3008926,44.9307527 54.3718017,44.5123891 L63.9499008,9.96413455 L63.9541983,9.92980727 C63.9810579,9.72706182 64.1099835,9.54469818 64.3506446,9.37198909 C64.6160165,9.18211636 64.8846116,9.08878909 65.1714711,9.08878909 L65.5700661,9.08878909 C65.858,9.08878909 66.126595,9.18211636 66.3919669,9.37198909 C66.6326281,9.54469818 66.7615537,9.72813455 66.7884132,9.93088 L66.7927107,9.96520727 L70.5208099,23.1050436 C70.5745289,23.3442618 70.5337025,23.5309164 70.3865124,23.7122073 C70.2393223,23.89028 70.0459339,23.9696618 69.7601488,23.9696618 L65.3401488,23.9696618 C64.4129587,23.9696618 63.5996529,24.5875527 63.3536198,25.4800618 L61.9708926,30.4725345 C61.7882479,31.1279709 62.2824628,31.7758982 62.9636198,31.7758982 L71.8218843,31.7758982 C72.1076694,31.7758982 72.3762645,31.8692255 72.6427107,32.0601709 C72.8984132,32.2436073 73.0520496,32.4624436 73.1186612,32.7467164 L76.3718843,44.5810436 C76.4438678,44.9607891 76.6834545,45.2868982 77.0799008,45.5497164 C77.4548595,45.7985891 77.8330413,45.9240982 78.2058512,45.9240982 L84.7219669,45.9240982 C85.4503967,45.9240982 85.9027107,45.4671164 85.9027107,44.72908 L85.9027107,44.4737709 L74.1060165,1.49173455 C73.9792397,1.13129818 73.7321322,0.830934545 73.3711405,0.600298182" id="Fill-13"></path>
                    </g>
                </g>
            </g>
        </g>
    </g>
</svg>